<?plantuml 1.2026.2?><svg xmlns="http://www.w3.org/2000/svg" xmlns:xlink="http://www.w3.org/1999/xlink" contentStyleType="text/css" data-diagram-type="DESCRIPTION" height="669px" preserveAspectRatio="none" style="width:406px;height:669px;background:#0A0A0A;" version="1.1" viewBox="0 0 406 669" width="406px" zoomAndPan="magnify"><title>ASE Layer Architecture (L0..L5)</title><defs/><g><rect fill="#0A0A0A" height="669" style="stroke:none;stroke-width:1;" width="406" x="0" y="0"/><g class="title" data-source-line="1"><text fill="#000000" font-family="sans-serif" font-size="14" font-weight="bold" lengthAdjust="spacing" textLength="211.9172" x="90.106" y="24.9659">ASE Layer Architecture (L0..L5)</text></g><!--entity L5--><g class="entity" data-qualified-name="L5" data-source-line="17" id="ent0002"><rect fill="#1A1A1A" height="52.6882" rx="4" ry="4" style="stroke:#5A9CB8;stroke-width:0.5;" width="201.7293" x="24.02" y="47.0679"/><text fill="#8A9A9A" font-family="sans-serif" font-size="12" lengthAdjust="spacing" textLength="126.3369" x="61.7162" y="69.896">L5 &#8212; Servers &amp; Clients</text><text fill="#8A9A9A" font-family="sans-serif" font-size="12" lengthAdjust="spacing" textLength="181.7293" x="34.02" y="86.2401">ase-server-game, ase-client-web</text></g><!--entity L4--><g class="entity" data-qualified-name="L4" data-source-line="18" id="ent0003"><rect fill="#1A1A1A" height="52.6882" rx="4" ry="4" style="stroke:#5A9CB8;stroke-width:0.5;" width="162.021" x="43.88" y="159.7579"/><text fill="#8A9A9A" font-family="sans-serif" font-size="12" lengthAdjust="spacing" textLength="72.8045" x="88.4883" y="182.586">L4 &#8212; Plugins</text><text fill="#8A9A9A" font-family="sans-serif" font-size="12" lengthAdjust="spacing" textLength="142.021" x="53.88" y="198.9301">ase-pl-sky, ase-pl-erosion</text></g><!--entity L3--><g class="entity" data-qualified-name="L3" data-source-line="19" id="ent0004"><rect fill="#1A1A1A" height="52.6882" rx="4" ry="4" style="stroke:#5A9CB8;stroke-width:0.5;" width="221.8895" x="13.94" y="272.4479"/><text fill="#8A9A9A" font-family="sans-serif" font-size="12" lengthAdjust="spacing" textLength="79.9446" x="84.9124" y="295.276">L3 &#8212; Modules</text><text fill="#8A9A9A" font-family="sans-serif" font-size="12" lengthAdjust="spacing" textLength="201.8895" x="23.94" y="311.6201">ase-terrain, ase-network, ase-player</text></g><!--entity L2--><g class="entity" data-qualified-name="L2" data-source-line="20" id="ent0005"><rect fill="#1A1A1A" height="52.6882" rx="4" ry="4" style="stroke:#5A9CB8;stroke-width:0.5;" width="235.7735" x="7" y="385.1379"/><text fill="#8A9A9A" font-family="sans-serif" font-size="12" lengthAdjust="spacing" textLength="67.8245" x="90.9745" y="407.966">L2 &#8212; Kernel</text><text fill="#8A9A9A" font-family="sans-serif" font-size="12" lengthAdjust="spacing" textLength="215.7735" x="17" y="424.3101">Game Loop, Scheduler, ModuleLoader</text></g><!--entity L1--><g class="entity" data-qualified-name="L1" data-source-line="21" id="ent0006"><rect fill="#1A1A1A" height="52.6882" rx="4" ry="4" style="stroke:#5A9CB8;stroke-width:0.5;" width="169.4251" x="40.17" y="497.8179"/><text fill="#8A9A9A" font-family="sans-serif" font-size="12" lengthAdjust="spacing" textLength="57.9604" x="95.9023" y="520.646">L1 &#8212; Core</text><text fill="#8A9A9A" font-family="sans-serif" font-size="12" lengthAdjust="spacing" textLength="149.4251" x="50.17" y="536.9901">ase-ecs, ase-log, ase-neo4j</text></g><!--entity L0--><g class="entity" data-qualified-name="L0" data-source-line="22" id="ent0007"><rect fill="#1A1A1A" height="52.6882" rx="4" ry="4" style="stroke:#5A9CB8;stroke-width:0.5;" width="185.7452" x="32.01" y="610.5079"/><text fill="#8A9A9A" font-family="sans-serif" font-size="12" lengthAdjust="spacing" textLength="95.9287" x="76.9183" y="633.336">L0 &#8212; Foundation</text><text fill="#8A9A9A" font-family="sans-serif" font-size="12" lengthAdjust="spacing" textLength="165.7452" x="42.01" y="649.6801">ase-math, ase-types, ase-utils</text></g><g class="entity" data-qualified-name="GMN13" data-source-line="31" id="ent0014"><path d="M252.64,618.1479 L252.64,632.8579 L217.93,636.8579 L252.64,640.8579 L252.64,655.5599 A4,4 0 0 0 256.64,659.5599 L395.1291,659.5599 A4,4 0 0 0 399.1291,655.5599 L399.1291,624.1479 L389.1291,614.1479 L256.64,614.1479 A4,4 0 0 0 252.64,618.1479" fill="#FEFFDD" style="stroke:#181818;stroke-width:0.5;"/><path d="M389.1291,614.1479 L389.1291,622.1479 A2,2 0 0 0 391.1291,624.1479 L399.1291,624.1479 L389.1291,614.1479" fill="#FEFFDD" style="stroke:#181818;stroke-width:0.5;"/><text fill="#000000" font-family="sans-serif" font-size="13" lengthAdjust="spacing" textLength="125.4891" x="258.64" y="633.0449">No ECS dependency.</text><text fill="#000000" font-family="sans-serif" font-size="13" lengthAdjust="spacing" textLength="125.1641" x="258.8025" y="650.7509">Pure primitives only.</text></g><!--link L5 to L4--><g class="link" data-entity-1="ent0002" data-entity-2="ent0003" data-link-type="dependency" data-source-line="24" id="lnk8"><path d="M124.89,100.0879 C124.89,117.9679 124.89,135.7179 124.89,153.5679" fill="none" id="L5-to-L4" style="stroke:#5A9CB8;stroke-width:1.4;"/><polygon fill="#5A9CB8" points="124.89,159.5679,128.89,150.5679,124.89,154.5679,120.89,150.5679,124.89,159.5679" style="stroke:#5A9CB8;stroke-width:1.4;"/></g><!--link L4 to L3--><g class="link" data-entity-1="ent0003" data-entity-2="ent0004" data-link-type="dependency" data-source-line="25" id="lnk9"><path d="M124.89,212.7779 C124.89,230.6579 124.89,248.4079 124.89,266.2579" fill="none" id="L4-to-L3" style="stroke:#5A9CB8;stroke-width:1.4;"/><polygon fill="#5A9CB8" points="124.89,272.2579,128.89,263.2579,124.89,267.2579,120.89,263.2579,124.89,272.2579" style="stroke:#5A9CB8;stroke-width:1.4;"/></g><!--link L3 to L2--><g class="link" data-entity-1="ent0004" data-entity-2="ent0005" data-link-type="dependency" data-source-line="26" id="lnk10"><path d="M124.89,325.4579 C124.89,343.3479 124.89,361.0879 124.89,378.9479" fill="none" id="L3-to-L2" style="stroke:#5A9CB8;stroke-width:1.4;"/><polygon fill="#5A9CB8" points="124.89,384.9479,128.89,375.9479,124.89,379.9479,120.89,375.9479,124.89,384.9479" style="stroke:#5A9CB8;stroke-width:1.4;"/></g><!--link L2 to L1--><g class="link" data-entity-1="ent0005" data-entity-2="ent0006" data-link-type="dependency" data-source-line="27" id="lnk11"><path d="M124.89,438.1479 C124.89,456.0279 124.89,473.7779 124.89,491.6279" fill="none" id="L2-to-L1" style="stroke:#5A9CB8;stroke-width:1.4;"/><polygon fill="#5A9CB8" points="124.89,497.6279,128.89,488.6279,124.89,492.6279,120.89,488.6279,124.89,497.6279" style="stroke:#5A9CB8;stroke-width:1.4;"/></g><!--link L1 to L0--><g class="link" data-entity-1="ent0006" data-entity-2="ent0007" data-link-type="dependency" data-source-line="28" id="lnk12"><path d="M124.89,550.8379 C124.89,568.7179 124.89,586.4679 124.89,604.3179" fill="none" id="L1-to-L0" style="stroke:#5A9CB8;stroke-width:1.4;"/><polygon fill="#5A9CB8" points="124.89,610.3179,128.89,601.3179,124.89,605.3179,120.89,601.3179,124.89,610.3179" style="stroke:#5A9CB8;stroke-width:1.4;"/></g><?plantuml-src NPFFRjim3CRlUWgY1OODY8CuVu3qCi0DsXtc3GNIOo-gpTXg5CcWv6RPC60FiIVSauoId2sk1HZC9tq_agBZbTS8nVOEIdb2WeAgLdciV4y8xylPT5gkFWZXzifqakG1dcMrRyZsfjvORGckPqLO5oTgtCbU-qVyvWkj6dD0uw7Y5zB5gG51XfEkBtJNojeUbMbW9xN3Yvs2o1w7fAlYPdExVhlvsAfgRz0voAVBowA96vAcuKv_2E3dzcqJUH5MshDK8utp1FtU6Z-ew-A6rpzrgxuZv7FnKuZ_YQxA5VpvzHksIAz83jx1HYk-1FTafCFCHJbhv04d48GgxcP7VBxYtr2kHgnbP3telb5c87GwS_jJCdECP9so9fcN8_CYch_OkjSuc7aM99L9ReF-Q6b_HeNl864M8ymyOZuZZqm_cKzSEPJMTXFOLYq6Das69AMLzPan7p7ooE2nOwe3AvVIQjkSYx7BbsJDHzPPjDw7eKdFdIR0GVes6Vsfmm7MUwLTOio4u45asSTmANoDCLe8lfCOpGMt5QDSS74nOekn7e5Kqtgmkw00VBLmjzdonzsXgT5KfocB3-5Vqf4wAAzUqO4rcdK-084W_W80?></g></svg>